<svg xmlns="http://www.w3.org/2000/svg" xmlns:xlink="http://www.w3.org/1999/xlink" version="1.0" x="0" y="0" width="2400" height="1378.334154242527" viewBox="42.342671661376954 51.68564346313477 255.3146566772461 146.62871307373047" preserveAspectRatio="xMidYMid meet" color-interpolation-filters="sRGB"><g><defs><linearGradient id="92" x1="0%" y1="0%" x2="100%" y2="0%"><stop offset="0%" stop-color="#fa71cd"></stop> <stop offset="100%" stop-color="#9b59b6"></stop></linearGradient><linearGradient id="93" x1="0%" y1="0%" x2="100%" y2="0%"><stop offset="0%" stop-color="#f9d423"></stop> <stop offset="100%" stop-color="#f83600"></stop></linearGradient><linearGradient id="94" x1="0%" y1="0%" x2="100%" y2="0%"><stop offset="0%" stop-color="#0064d2"></stop> <stop offset="100%" stop-color="#1cb0f6"></stop></linearGradient><linearGradient id="95" x1="0%" y1="0%" x2="100%" y2="0%"><stop offset="0%" stop-color="#f00978"></stop> <stop offset="100%" stop-color="#3f51b1"></stop></linearGradient><linearGradient id="96" x1="0%" y1="0%" x2="100%" y2="0%"><stop offset="0%" stop-color="#7873f5"></stop> <stop offset="100%" stop-color="#ec77ab"></stop></linearGradient><linearGradient id="97" x1="0%" y1="0%" x2="100%" y2="0%"><stop offset="0%" stop-color="#f9d423"></stop> <stop offset="100%" stop-color="#e14fad"></stop></linearGradient><linearGradient id="98" x1="0%" y1="0%" x2="100%" y2="0%"><stop offset="0%" stop-color="#009efd"></stop> <stop offset="100%" stop-color="#2af598"></stop></linearGradient><linearGradient id="99" x1="0%" y1="0%" x2="100%" y2="0%"><stop offset="0%" stop-color="#ffcc00"></stop> <stop offset="100%" stop-color="#00b140"></stop></linearGradient><linearGradient id="100" x1="0%" y1="0%" x2="100%" y2="0%"><stop offset="0%" stop-color="#d51007"></stop> <stop offset="100%" stop-color="#ff8177"></stop></linearGradient><linearGradient id="102" x1="0%" y1="0%" x2="100%" y2="0%"><stop offset="0%" stop-color="#a2b6df"></stop> <stop offset="100%" stop-color="#0c3483"></stop></linearGradient><linearGradient id="103" x1="0%" y1="0%" x2="100%" y2="0%"><stop offset="0%" stop-color="#7ac5d8"></stop> <stop offset="100%" stop-color="#eea2a2"></stop></linearGradient><linearGradient id="104" x1="0%" y1="0%" x2="100%" y2="0%"><stop offset="0%" stop-color="#00ecbc"></stop> <stop offset="100%" stop-color="#007adf"></stop></linearGradient><linearGradient id="105" x1="0%" y1="0%" x2="100%" y2="0%"><stop offset="0%" stop-color="#b88746"></stop> <stop offset="100%" stop-color="#fdf5a6"></stop></linearGradient></defs><g fill="#e733ec" class="bordersvg b-d1" transform="translate(44.84575653076172,54.18872833251953)"><polyline stroke="#e733ec" stroke-width="3" fill-opacity="0" points="125.15424346923828,20 125.15424346923828,0 0,0 0,141.62254333496094 125.15424346923828,141.62254333496094 125.15424346923828,121.62254333496094"></polyline> <g transform="translate(0,20)"><g><rect stroke-width="2" class="i-icon-bg" x="0" y="0" width="250.30848693847656" height="101.62254333496094" fill-opacity="0"></rect> </g> <g transform="translate(10,3)"><g fill-rule="evenodd" class="tp-name" transform="translate(0,0)"><g transform="scale(1)"><g><path d="M42.7-43.18Q42.65-43.17 42.6-43.16C41.61-42.35 41.06-41.11 41.2-39.98 40.9-36.92 41.1-32.06 41.6-26.16 41.66-24.97 41.73-23.78 41.79-22.6 43.1-5.26 44.8 18.99 39.9 30.96 38.97 33.95 36.65 36.53 33.79 37.8 30.22 38.77 26.68 38.29 24 36.45 14.6 31.23 5.7 17.01 2.6 9.83 2.46 9.52 2.31 9.22 2.2 8.91 1.8 8.39 1.2 8.11 0.4 8.47 0.27 8.49 0.15 8.57 0.07 8.68 0 8.79-0.03 8.93 0 9.05Q0 9.1 0 9.15C0.88 11.23 1.88 13.23 3 15.15 4.7 18.21 7 21.85 9.6 25.33 10.91 27.09 12.32 28.78 13.8 30.39 15.11 31.8 16.51 33.12 17.98 34.35 22.08 38.75 28.37 40.49 35 39.05 38.64 37.41 41.48 34 42.4 30.17 46.5 18.45 45.5-1.94 44.4-18.12 44.3-19.61 44.2-21.09 44.09-22.56 43.83-26.14 43.6-29.73 43.4-33.33 43.1-37.76 43.1-40.86 43.4-41.62 43.44-41.7 43.51-41.76 43.6-41.76 43.63-41.77 43.66-41.78 43.7-41.78Q43.75-41.54 43.8-41.3C43.86-40.9 43.99-40.51 44.2-40.18 47.18-35.26 50.32-30.45 53.6-25.76 57.5-20.14 61.4-15.22 65-10.85 67.25-8.11 69.59-5.43 72-2.84 72.75-1.99 73.52-1.14 74.3-0.3 77.5 2.95 82.2 7.41 85.5 8.25 86.09 8.5 86.79 8.54 87.5 8.35 88.9 7.77 88.7 3.71 87.7-1.88 87.09-5.33 86.43-8.77 85.69-12.18 85.2-14.39 84.8-16.6 84.3-18.8 83.41-22.81 82.61-26.85 81.89-30.92 81.2-34.48 80.88-38.16 80.9-41.93 80.69-43.38 81.25-45 82.4-46.22Q82.5-46.24 82.6-46.26C83.53-46.32 84.38-46.03 85-45.45 85.2-45.31 85.44-45.21 85.69-45.17 85.93-45.17 86.16-45.22 86.4-45.32 86.56-45.32 86.74-45.4 86.86-45.55 86.98-45.69 87.03-45.88 87-46.04 86.96-46.15 86.89-46.24 86.8-46.3 86.77-46.34 86.74-46.36 86.7-46.38 86.66-46.4 86.62-46.43 86.6-46.46 85.27-47.6 83.43-48.03 81.5-47.65 81.25-47.56 81.02-47.44 80.8-47.31 79.37-45.81 78.66-43.82 78.89-42.01 78.7-39.08 79.09-35.15 79.7-30.78 79.79-30.16 79.89-29.55 80-28.95 80.56-25.68 81.2-22.44 81.89-19.22 82.1-18.06 82.4-16.83 82.6-15.66 82.8-14.81 83-13.95 83.2-13.09 84.22-8.64 85.15-4.16 85.99 0.35 86.03 0.58 86.06 0.8 86.1 1.03 86.48 2.76 86.65 4.57 86.6 6.42 86.59 6.64 86.47 6.85 86.29 7 85.57 6.9 84.92 6.62 84.4 6.17 81.2 3.91 75.5-1.74 74.09-3.15 74.06-3.22 74.03-3.28 73.98-3.33 72.67-4.75 71.37-6.19 70.09-7.65 61.6-17.56 52.7-30.18 46.4-40.62 45.7-41.78 44.3-43.5 42.7-43.18Q42.7-43.18 42.7-43.18M109.3-27.7Q115.8-29.3 122.3-30.9C122.07-30.15 121.84-29.4 121.6-28.66 120.56-25.27 119.15-21.93 117.4-18.73 117.38-18.65 117.38-18.58 117.4-18.52 117.36-18.38 117.36-18.25 117.4-18.12 117.64-17.83 117.99-17.65 118.4-17.62 118.59-17.58 118.79-17.59 119-17.65 119.18-17.66 119.37-17.77 119.5-17.94 121.36-21.42 122.84-25.04 123.9-28.73 124.18-29.64 124.44-30.55 124.69-31.47Q124.9-31.52 125.1-31.56 124.9-26.47 124.7-21.38C124.7-21.05 124.7-20.72 124.7-20.39 124.69-20.04 124.69-19.71 124.7-19.39 124.69-19.08 124.69-18.77 124.7-18.48 124.72-16.58 125.16-14.79 125.99-13.23 126.07-13.16 126.13-13.07 126.2-12.99 126.25-12.92 126.32-12.86 126.4-12.82 127.05-12.01 128.13-11.66 129.3-11.9 130.06-12.09 130.81-12.45 131.5-12.94 134.5-15.04 137.5-19.54 138.69-21.58 138.83-21.8 138.97-22.03 139.09-22.25 139.16-22.4 139.19-22.55 139.19-22.68 139.21-22.87 139.13-23.04 138.99-23.14 138.76-23.44 138.4-23.62 138-23.64 137.84-23.67 137.66-23.67 137.5-23.64 137.32-23.58 137.16-23.44 137.1-23.27 136.43-22.08 135.69-20.93 134.9-19.82 133.9-18.32 132.69-16.77 131.5-15.54 130.63-14.56 129.56-13.83 128.4-13.42 128.22-13.36 128.08-13.41 127.99-13.53 127.96-13.6 127.93-13.66 127.9-13.72 127.79-13.89 127.69-14.07 127.6-14.26 127.52-14.48 127.46-14.7 127.4-14.92 127.1-15.86 126.9-17.32 126.9-19.02 126.85-21.88 126.92-24.76 127.1-27.66 127.1-27.96 127.1-28.36 127.2-28.78 127.23-29.88 127.26-30.99 127.29-32.1Q143.19-35.97 159.1-39.86C159.19-39.85 159.32-39.89 159.41-39.97 159.5-40.04 159.57-40.15 159.6-40.26 159.57-40.33 159.54-40.38 159.5-40.44 159.5-40.51 159.5-40.58 159.5-40.64 159.22-40.98 158.77-41.11 158.3-41Q158.3-41 158.3-41 142.8-37.25 127.3-33.5 127.44-36.87 127.6-40.27C127.7-41.38 127.77-42.49 127.79-43.6 127.7-43.98 127.7-44.38 127.7-44.58 127.79-44.74 127.83-44.93 127.8-45.1 127.78-45.2 127.75-45.3 127.7-45.38 127.61-45.48 127.51-45.56 127.4-45.62 127.27-45.71 127.14-45.78 127-45.84 126.9-45.86 126.8-45.88 126.69-45.87 126.63-45.87 126.56-45.86 126.5-45.84 125.8-45.7 125.3-44.6 125-42.54 124.38-39.15 123.62-35.76 122.7-32.38 120-31.74 117.3-31.1 114.59-30.46 111.93-29.8 109.26-29.14 106.59-28.45 106.46-28.46 106.32-28.41 106.21-28.31 106.1-28.22 106.02-28.08 106-27.94 106-27.94 106-27.84 106.1-27.66Q106.15-27.62 106.2-27.58C106.56-27.2 107.04-26.94 107.6-26.86 107.99-26.8 108.39-26.74 108.79-26.69 108.95-26.66 109.12-26.65 109.3-26.7 109.4-26.69 109.52-26.73 109.61-26.81 109.7-26.88 109.77-26.99 109.8-27.11 109.77-27.24 109.7-27.37 109.59-27.45 109.56-27.49 109.53-27.51 109.5-27.54 109.44-27.6 109.37-27.66 109.3-27.71Q109.3-27.7 109.3-27.7M138.69-34.87Q145.25-36.19 151.8-37.5C151.54-36.74 151.27-35.99 151-35.24 149.81-31.9 148.26-28.64 146.4-25.52 146.3-25.4 146.3-25.3 146.3-25.2 146.29-25.05 146.32-24.93 146.4-24.82 146.62-24.55 146.93-24.36 147.3-24.3 147.47-24.23 147.68-24.2 147.9-24.22 148.1-24.26 148.3-24.4 148.4-24.62 150.41-28.01 152.06-31.57 153.3-35.21 153.61-36.13 153.91-37.05 154.19-37.98Q154.35-38.01 154.5-38.04 154.1-32.92 153.69-27.77C153.66-27.44 153.63-27.1 153.59-26.75 153.59-26.39 153.59-26.02 153.6-25.66 153.59-25.39 153.59-25.12 153.59-24.85 153.53-22.96 153.87-21.15 154.6-19.56 154.66-19.48 154.72-19.39 154.79-19.29 154.85-19.21 154.91-19.12 155-19.04 155.8-18 156.8-17.8 157.9-18.02 158.66-18.18 159.41-18.5 160.1-18.96 163.19-20.97 166.3-25.4 167.5-27.35 167.67-27.57 167.83-27.8 168-28.04 168.06-28.18 168.1-28.33 168.1-28.47 168.08-28.61 168.01-28.74 167.9-28.83 167.7-29.15 167.38-29.37 166.99-29.43 166.84-29.47 166.67-29.47 166.5-29.44 166.3-29.44 166.11-29.32 166-29.14 165.33-27.96 164.59-26.81 163.8-25.7 162.69-24.27 161.5-22.84 160.19-21.57 159.3-20.62 158.18-19.9 157-19.55 156.87-19.53 156.76-19.58 156.69-19.67 156.63-19.73 156.56-19.79 156.5-19.84 156.41-20.06 156.35-20.28 156.3-20.5 156.22-20.72 156.16-20.94 156.09-21.15 155.83-22.49 155.72-23.88 155.8-25.3 155.88-28.15 156.09-31.03 156.4-33.92 156.4-34.32 156.4-34.72 156.5-35.14 156.6-36.26 156.69-37.38 156.79-38.5Q172.7-41.68 188.6-44.86C188.7-44.85 188.82-44.89 188.91-44.97 189-45.04 189.07-45.15 189.1-45.26 189.07-45.33 189.04-45.38 189-45.44 189-45.51 189-45.58 189-45.64 188.74-45.95 188.34-46.09 187.89-46.01Q187.85-46.01 187.8-46 172.35-42.96 156.9-39.92 157.15-43.32 157.4-46.73C157.54-47.84 157.63-48.96 157.69-50.07 157.72-50.42 157.72-50.75 157.69-51.07 157.77-51.22 157.8-51.36 157.8-51.5 157.78-51.6 157.75-51.7 157.69-51.77 157.63-51.91 157.58-52.03 157.5-52.15 157.34-52.22 157.16-52.29 157-52.34 156.93-52.33 156.86-52.32 156.8-52.3 156.69-52.33 156.6-52.35 156.5-52.35 155.9-52.22 155.4-51.22 154.9-49.02 154.3-46.4 153.4-42.82 152.19-38.97 149.5-38.44 146.79-37.89 144.1-37.37 141.43-36.83 138.76-36.3 136.09-35.76 135.94-35.8 135.78-35.75 135.63-35.64 135.51-35.54 135.41-35.38 135.4-35.22 135.4-35.22 135.5-35.14 135.6-34.96Q135.6-34.91 135.6-34.86C135.97-34.46 136.51-34.22 137.1-34.16 137.46-34.07 137.83-33.97 138.19-33.88 138.4-33.82 138.6-33.86 138.69-33.77 138.82-33.77 138.94-33.83 139.05-33.93 139.13-34.02 139.19-34.16 139.19-34.27 139.18-34.38 139.15-34.48 139.09-34.55 139.04-34.62 138.97-34.68 138.9-34.73 138.84-34.78 138.77-34.84 138.69-34.88Q138.69-34.87 138.69-34.87M207.4-30.02Q207.45-30.03 207.5-30.04C210.02-30.36 212.43-32.13 213.7-34.58 213.72-34.65 213.76-34.73 213.8-34.8 213.86-34.94 213.89-35.08 213.9-35.22 213.91-35.32 213.91-35.43 213.9-35.53 213.79-35.74 213.62-35.92 213.4-36.02 213.15-36.13 212.88-36.18 212.6-36.16 212.03-36 211.54-35.55 211.3-35 211.3-34.9 211.2-34.88 211.2-34.78 211.07-34.58 210.94-34.38 210.8-34.2 209.75-32.79 208.19-31.84 206.59-31.65 204.19-31.51 202-32.33 200.5-33.95 200.18-34.23 199.88-34.54 199.6-34.86 201.16-37.81 202.37-40.87 203.2-43.99 203.66-45.64 203.96-47.31 204.1-48.96Q204.14-49.26 204.2-49.58C204.4-53.12 202.9-56.52 198.9-56.03Q198.7-56.03 198.5-56.04C196.98-55.52 195.62-54.42 194.73-52.99 193.84-51.56 193.51-49.95 193.8-48.5 193.69-47.04 193.73-45.61 193.9-44.23 194.21-41.66 194.92-39.24 196-37.05Q196.15-36.72 196.3-36.4C195.28-36.97 194.07-37.21 192.8-37.1 190.39-36.62 188.31-34.55 187.8-32.1 187.64-31.58 187.54-31.05 187.5-30.54 187.44-29.88 187.55-29.26 187.8-28.7 188.35-27.76 189.28-27.12 190.4-26.92 190.78-26.83 191.18-26.81 191.6-26.86Q191.64-26.86 191.7-26.88C194-27.24 196.6-29.86 198.7-33.38 200.62-31.39 203.25-30.21 206.2-29.98 206.59-29.96 206.99-29.97 207.4-30.03Q207.4-30.02 207.4-30.02M177.6-32.66Q177.55-32.65 177.5-32.64C177.15-32.58 176.82-32.36 176.6-32.06 176.41-31.84 176.25-31.61 176.1-31.36 175.43-30.39 174.73-29.45 174-28.54 172.5-26.74 170.6-24.76 169.1-24.56 168.82-24.51 168.54-24.52 168.3-24.6 168.2-24.58 168-24.74 167.9-24.92 167.7-25.39 167.63-25.92 167.7-26.48 167.69-26.54 167.69-26.61 167.7-26.68 167.72-27.28 167.89-27.9 168.2-28.49 168.23-28.55 168.26-28.63 168.3-28.7 168.3-28.74 168.3-28.77 168.3-28.8 168.3-28.9 168.3-29.01 168.2-29.08 167.99-29.39 167.67-29.61 167.3-29.7 167.14-29.76 166.97-29.8 166.8-29.8 166.57-29.81 166.34-29.68 166.2-29.48 165.73-28.67 165.49-27.79 165.5-26.95 165.48-26.53 165.52-26.14 165.6-25.77 165.66-25.32 165.8-24.92 166-24.54 166.43-23.75 167.18-23.22 168.1-23.06 168.62-22.87 169.2-22.82 169.8-22.9 172.02-23.53 174.08-25.02 175.5-27.04 176.12-27.81 176.72-28.59 177.3-29.4Q177.45-29.23 177.6-29.06C178.7-27.08 180.9-26.02 183.4-26.52Q183.55-26.51 183.7-26.48C186.17-27.01 188.43-28.84 189.6-31.26 189.66-31.37 189.73-31.48 189.8-31.6 189.84-31.67 189.87-31.74 189.9-31.83 189.95-31.93 189.98-32.03 189.99-32.13 189.99-32.27 189.96-32.41 189.89-32.52 189.65-32.82 189.3-33 188.9-33.02 188.77-33.05 188.63-33.05 188.49-33.04 188.2-33.08 188-32.95 187.9-32.72Q187.1-31.56 186.3-30.4C185.43-29.31 184.25-28.51 183-28.15 182.83-28.1 182.66-28.07 182.5-28.04 181.49-27.83 180.54-28.08 179.89-28.71 179.86-28.81 179.83-28.9 179.8-29.01 179.7-28.98 179.7-29.08 179.7-29.08 179.62-29.19 179.55-29.32 179.5-29.44 179.23-29.99 179.06-30.6 179-31.24 178.95-31.58 178.85-31.9 178.7-32.18 178.47-32.54 178.05-32.72 177.6-32.66Q177.6-32.66 177.6-32.66M114.2-12.18Q114.25-12.19 114.3-12.2C115.95-12.84 117.38-14.14 118.2-15.78 118.56-16.4 118.9-17.04 119.2-17.69 119.29-17.78 119.36-17.9 119.4-18.02 119.4-18.09 119.4-18.16 119.4-18.23 119.37-18.29 119.34-18.34 119.29-18.39 119.3-18.47 119.3-18.54 119.3-18.6 119.04-18.85 118.69-18.99 118.3-19.01 118.13-19.02 117.97-19.03 117.8-19 117.55-18.99 117.32-18.82 117.2-18.58 116.92-17.98 116.62-17.38 116.3-16.81 115.69-15.45 114.6-14.34 113.3-13.7Q113.25-13.69 113.2-13.68C112.1-13.46 111.5-14.04 110.9-14.72Q110.5-15.34 110.1-15.96C109.54-17.02 108.39-17.55 107.09-17.35 106.5-17.24 105.9-16.82 105.2-16.08 104.2-17.48 102.4-18.02 100.5-17.54 98.75-16.97 97.15-15.8 96-14.24 95.73-13.91 95.5-13.57 95.3-13.2 94.89-12.44 94.61-11.64 94.5-10.84 94.45-10.44 94.45-10.03 94.5-9.64 94.6-8.96 94.8-8.2 95.2-7.68 95.73-6.98 96.63-6.67 97.6-6.86Q97.69-6.87 97.8-6.9C98.91-7.32 99.97-7.98 100.9-8.83 103.3-10.9 105.9-13.82 107.1-15.16 107.3-15.4 107.5-15.64 107.7-15.88 107.77-15.88 107.84-15.86 107.9-15.82 107.93-15.76 107.96-15.7 108-15.64 108.07-15.56 108.13-15.47 108.19-15.37 108.47-14.89 108.77-14.41 109.1-13.96 109.13-13.9 109.16-13.84 109.2-13.78 110.24-12.25 112.17-11.63 114.2-12.18Q114.2-12.18 114.2-12.18M217.3-31.2Q217.2-31.18 217.1-31.16C215.4-31.12 214.5-31.74 214.2-32.68 214-33.04 213.9-33.52 213.9-33.92Q213.95-34.03 214-34.14C215.34-33.59 216.84-33.38 218.39-33.51 219.19-33.36 220.08-33.56 220.86-34.08 221.63-34.59 222.23-35.37 222.5-36.25 222.6-36.56 222.5-36.94 222.3-37.3 221.4-38.85 219.64-39.6 217.7-39.28Q217.6-39.26 217.5-39.24C216.29-39.32 214.99-38.87 213.93-38 212.87-37.12 212.13-35.9 211.9-34.62 211.8-33.8 212-33.14 212.3-32.4 213.34-30.45 215.42-29.4 217.8-29.6 217.93-29.59 218.06-29.59 218.2-29.58 218.56-29.64 218.93-29.71 219.3-29.8 223.4-30.62 227.7-33.58 229-34.94 229.06-34.99 229.13-35.03 229.2-35.08 229.33-35.24 229.46-35.4 229.6-35.56 229.94-35.87 230.19-36.27 230.3-36.7 230.27-36.77 230.24-36.82 230.2-36.88 230.2-36.95 230.2-37.02 230.2-37.08 229.98-37.38 229.67-37.6 229.3-37.7 229.17-37.73 229.03-37.73 228.9-37.72 228.55-37.69 228.2-37.47 227.99-37.13 227.92-37.03 227.86-36.92 227.8-36.8 227.32-36.24 226.78-35.72 226.2-35.28 224.6-33.96 222.3-32.6 220-31.84 219.1-31.52 218.2-31.31 217.3-31.21Q217.3-31.2 217.3-31.2M201.6-53.56Q201.6-53.56 201.6-53.56C202.07-52.41 202.24-51.11 202.1-49.76 201.9-46.72 200.7-42.98 199.6-40.06 199.17-38.96 198.71-37.86 198.19-36.77Q198.05-37.05 197.9-37.32C196.91-39.31 196.27-41.51 196-43.84 195.83-45.23 195.79-46.66 195.89-48.11 196.1-51.36 197.2-53.98 199.5-54.44Q199.65-54.47 199.8-54.5C200.61-54.66 201.34-54.28 201.6-53.56Q201.6-53.56 201.6-53.56M148.4-24.62C148.36-24.55 148.33-24.47 148.3-24.4 147.77-23.5 147.16-22.64 146.5-21.84 145.38-20.38 143.85-19.32 142.19-18.87 140.34-18.51 138.62-19.16 137.69-20.57 137.49-20.85 137.32-21.15 137.19-21.47 137.07-21.81 137.01-22.17 137-22.54 137-22.92 137.07-23.3 137.19-23.67 137.3-23.9 137.5-24.04 137.8-24.1 138.3-24.2 139-23.94 139.19-23.57 139.22-23.52 139.27-23.46 139.3-23.4 139.3-23.37 139.3-23.34 139.3-23.3 139.3-23.21 139.3-23.1 139.3-23.1 139.19-22.77 139.19-22.57 139.19-22.27 139.19-22.05 139.22-21.81 139.3-21.6 139.34-21.4 139.41-21.22 139.5-21.04 139.84-20.43 140.53-20.14 141.3-20.31 142.15-20.57 142.94-21.08 143.6-21.76 143.66-21.84 143.72-21.92 143.79-22 145.3-23.41 145.8-24.7 146.4-25.32 146.53-25.47 146.71-25.58 146.9-25.62 147.18-25.64 147.44-25.59 147.69-25.48 148-25.45 148.19-25.27 148.3-25.01 148.35-24.92 148.38-24.82 148.4-24.72 148.4-24.69 148.4-24.66 148.4-24.62Q148.4-24.62 148.4-24.62M191.1-28.46Q191.05-28.45 191-28.44C190.45-28.36 189.97-28.57 189.7-28.98Q189.7-28.98 189.7-28.98C189.58-29.31 189.55-29.69 189.59-30.05 189.63-30.68 189.77-31.32 190-31.94 190.47-33.65 191.92-35.06 193.6-35.46 194.89-35.49 196.06-35.06 196.9-34.23 195.83-32.21 194.31-30.43 192.5-29.04 192.06-28.74 191.58-28.54 191.1-28.46Q191.1-28.46 191.1-28.46M103.3-15.6C102.91-16.13 102.2-16.3 101.5-16.04 101.26-15.98 101.02-15.9 100.8-15.8 98.37-14.62 96.67-12.1 96.6-9.56 96.61-9.36 96.65-9.17 96.7-8.98 96.74-8.78 96.81-8.6 96.9-8.42 98.6-8.96 101.6-12.26 103.7-14.59 103.66-14.71 103.63-14.83 103.59-14.96 103.51-15.19 103.41-15.4 103.3-15.6Q103.3-15.6 103.3-15.6M220.3-36.7C220.31-36.91 220.28-37.11 220.2-37.28 220.1-37.66 219.5-37.75 218.7-37.68 218.23-37.64 217.76-37.55 217.3-37.4 216.24-37.1 215.25-36.44 214.5-35.54 215.47-35.14 216.56-34.98 217.7-35.09 218.72-34.93 219.84-35.62 220.3-36.71Q220.3-36.7 220.3-36.7M139.6-28.66Q139.6-28.72 139.6-28.77C139.58-28.86 139.55-28.96 139.5-29.04 139.24-29.32 138.88-29.49 138.5-29.55 138.34-29.57 138.16-29.57 138-29.54 137.85-29.55 137.69-29.47 137.57-29.35 137.46-29.23 137.38-29.07 137.4-28.92 137.41-28.66 137.41-28.39 137.4-28.13 137.35-27.88 137.32-27.64 137.3-27.4 137.3-27.13 137.37-26.86 137.5-26.64 137.69-26.39 137.97-26.24 138.3-26.21 138.5-26.14 138.69-26.17 138.8-26.2 139.51-26.62 139.87-27.5 139.6-28.16 139.6-28.16 139.6-28.16 139.6-28.16 139.59-28.32 139.59-28.49 139.6-28.66Q139.6-28.66 139.6-28.66" transform="translate(0.008476565591990948, 56.077274322509766)"></path></g> </g></g> <g fill-rule="" class="tp-slogan" transform="translate(58.79424285888672,82.62254333496094)"> <g transform="scale(1, 1)"><g transform="scale(1)"><path d="M0.28-7.87L1.94 0L3.13 0L4.30-4.74C4.36-5.04 4.43-5.34 4.49-5.63C4.56-5.93 4.63-6.22 4.69-6.53L4.74-6.53C4.80-6.22 4.87-5.93 4.93-5.63C4.99-5.34 5.05-5.04 5.12-4.74L6.31 0L7.51 0L9.14-7.87L8.18-7.87L7.36-3.59C7.28-3.16 7.20-2.74 7.13-2.32C7.06-1.90 6.98-1.48 6.91-1.04L6.86-1.04C6.77-1.48 6.67-1.90 6.58-2.33C6.48-2.75 6.38-3.17 6.29-3.59L5.20-7.87L4.28-7.87L3.19-3.59C3.10-3.16 3.01-2.74 2.92-2.32C2.82-1.90 2.73-1.48 2.64-1.04L2.59-1.04C2.52-1.48 2.44-1.90 2.36-2.32C2.28-2.73 2.21-3.16 2.14-3.59L1.31-7.87ZM10.51-7.87L10.51 0L15.17 0L15.17-0.85L11.51-0.85L11.51-3.71L14.50-3.71L14.50-4.56L11.51-4.56L11.51-7.03L15.05-7.03L15.05-7.87ZM16.84-7.87L16.84 0L21.28 0L21.28-0.85L17.83-0.85L17.83-7.87ZM21.90-3.94C21.90-3.30 21.99-2.72 22.16-2.21C22.33-1.71 22.57-1.28 22.88-0.93C23.19-0.58 23.55-0.32 23.97-0.13C24.39 0.05 24.85 0.14 25.34 0.14C25.85 0.14 26.30 0.04 26.69-0.16C27.08-0.36 27.43-0.64 27.74-1.00L27.18-1.61C26.92-1.33 26.65-1.11 26.37-0.96C26.09-0.81 25.75-0.73 25.37-0.73C24.99-0.73 24.65-0.81 24.35-0.96C24.05-1.11 23.80-1.33 23.59-1.61C23.38-1.89 23.22-2.23 23.11-2.62C22.99-3.02 22.93-3.46 22.93-3.96C22.93-4.45 22.99-4.89 23.11-5.28C23.23-5.67 23.40-6.01 23.62-6.28C23.83-6.56 24.09-6.77 24.40-6.92C24.70-7.07 25.04-7.14 25.42-7.14C25.75-7.14 26.05-7.07 26.30-6.94C26.55-6.81 26.78-6.63 26.99-6.41L27.55-7.04C27.32-7.30 27.02-7.53 26.66-7.72C26.30-7.92 25.88-8.02 25.40-8.02C24.90-8.02 24.43-7.92 24.01-7.73C23.58-7.55 23.21-7.28 22.90-6.92C22.58-6.57 22.34-6.14 22.16-5.64C21.99-5.14 21.90-4.57 21.90-3.94ZM31.76 0.14C32.26 0.14 32.71 0.05 33.13-0.14C33.54-0.34 33.89-0.61 34.19-0.97C34.49-1.32 34.73-1.75 34.89-2.26C35.05-2.77 35.14-3.34 35.14-3.97C35.14-4.60 35.05-5.16 34.89-5.66C34.73-6.16 34.49-6.58 34.19-6.93C33.89-7.28 33.54-7.55 33.13-7.73C32.71-7.92 32.26-8.02 31.76-8.02C31.27-8.02 30.81-7.92 30.40-7.74C29.99-7.56 29.64-7.29 29.34-6.94C29.04-6.59 28.81-6.17 28.65-5.67C28.49-5.17 28.40-4.60 28.40-3.97C28.40-3.34 28.49-2.77 28.65-2.26C28.81-1.75 29.04-1.32 29.34-0.97C29.64-0.61 29.99-0.34 30.40-0.14C30.81 0.05 31.27 0.14 31.76 0.14ZM31.76-0.73C31.41-0.73 31.09-0.81 30.81-0.96C30.53-1.11 30.28-1.33 30.08-1.61C29.87-1.90 29.72-2.24 29.60-2.63C29.49-3.03 29.44-3.48 29.44-3.97C29.44-4.46 29.49-4.90 29.60-5.29C29.72-5.68 29.87-6.02 30.08-6.29C30.28-6.56 30.53-6.77 30.81-6.92C31.09-7.07 31.41-7.14 31.76-7.14C32.12-7.14 32.43-7.07 32.72-6.92C33.00-6.77 33.25-6.56 33.45-6.29C33.65-6.02 33.81-5.68 33.92-5.29C34.04-4.90 34.09-4.46 34.09-3.97C34.09-3.48 34.04-3.03 33.92-2.63C33.81-2.24 33.65-1.90 33.45-1.61C33.25-1.33 33.00-1.11 32.72-0.96C32.43-0.81 32.12-0.73 31.76-0.73ZM36.83-7.87L36.83 0L37.75 0L37.75-4.33C37.75-4.68 37.74-5.07 37.70-5.50C37.67-5.92 37.64-6.31 37.62-6.66L37.67-6.66L38.29-4.91L39.82-0.79L40.38-0.79L41.89-4.91L42.53-6.66L42.58-6.66C42.54-6.31 42.51-5.92 42.49-5.50C42.46-5.07 42.44-4.68 42.44-4.33L42.44 0L43.39 0L43.39-7.87L42.22-7.87L40.70-3.65L40.15-2.04L40.10-2.04L39.53-3.65L38.00-7.87ZM45.55-7.87L45.55 0L50.21 0L50.21-0.85L46.55-0.85L46.55-3.71L49.54-3.71L49.54-4.56L46.55-4.56L46.55-7.03L50.09-7.03L50.09-7.87ZM55.93-7.03L55.93 0L56.94 0L56.94-7.03L59.32-7.03L59.32-7.87L53.56-7.87L53.56-7.03ZM63.35 0.14C63.84 0.14 64.30 0.05 64.71-0.14C65.12-0.34 65.48-0.61 65.78-0.97C66.08-1.32 66.31-1.75 66.47-2.26C66.64-2.77 66.72-3.34 66.72-3.97C66.72-4.60 66.64-5.16 66.47-5.66C66.31-6.16 66.08-6.58 65.78-6.93C65.48-7.28 65.12-7.55 64.71-7.73C64.30-7.92 63.84-8.02 63.35-8.02C62.85-8.02 62.40-7.92 61.99-7.74C61.57-7.56 61.22-7.29 60.92-6.94C60.63-6.59 60.40-6.17 60.23-5.67C60.07-5.17 59.99-4.60 59.99-3.97C59.99-3.34 60.07-2.77 60.23-2.26C60.40-1.75 60.63-1.32 60.92-0.97C61.22-0.61 61.57-0.34 61.99-0.14C62.40 0.05 62.85 0.14 63.35 0.14ZM63.35-0.73C63.00-0.73 62.68-0.81 62.39-0.96C62.11-1.11 61.87-1.33 61.66-1.61C61.46-1.90 61.30-2.24 61.19-2.63C61.08-3.03 61.02-3.48 61.02-3.97C61.02-4.46 61.08-4.90 61.19-5.29C61.30-5.68 61.46-6.02 61.66-6.29C61.87-6.56 62.11-6.77 62.39-6.92C62.68-7.07 63.00-7.14 63.35-7.14C63.70-7.14 64.02-7.07 64.30-6.92C64.59-6.77 64.83-6.56 65.03-6.29C65.24-6.02 65.40-5.68 65.51-5.29C65.62-4.90 65.68-4.46 65.68-3.97C65.68-3.48 65.62-3.03 65.51-2.63C65.40-2.24 65.24-1.90 65.03-1.61C64.83-1.33 64.59-1.11 64.30-0.96C64.02-0.81 63.70-0.73 63.35-0.73ZM72.47-7.03L72.47 0L73.48 0L73.48-7.03L75.85-7.03L75.85-7.87L70.09-7.87L70.09-7.03ZM77.27-7.87L77.27 0L78.26 0L78.26-3.71L81.92-3.71L81.92 0L82.93 0L82.93-7.87L81.92-7.87L81.92-4.57L78.26-4.57L78.26-7.87ZM85.09-7.87L85.09 0L89.75 0L89.75-0.85L86.09-0.85L86.09-3.71L89.08-3.71L89.08-4.56L86.09-4.56L86.09-7.03L89.63-7.03L89.63-7.87ZM93.85-1.62L93.13-1.12C93.60-0.28 94.32 0.14 95.30 0.14C95.69 0.14 96.02 0.08 96.29-0.05C96.57-0.18 96.79-0.35 96.97-0.58C97.14-0.80 97.27-1.06 97.35-1.36C97.43-1.66 97.48-1.98 97.48-2.32L97.48-7.87L96.47-7.87L96.47-2.41C96.47-1.81 96.36-1.38 96.16-1.12C95.95-0.86 95.63-0.73 95.21-0.73C94.93-0.73 94.68-0.80 94.45-0.94C94.23-1.08 94.03-1.31 93.85-1.62ZM99.56-7.87L99.56-3.25C99.56-2.62 99.64-2.09 99.78-1.66C99.92-1.22 100.12-0.87 100.37-0.61C100.63-0.34 100.93-0.15 101.27-0.03C101.62 0.09 102.00 0.14 102.40 0.14C102.80 0.14 103.17 0.09 103.51-0.03C103.86-0.15 104.15-0.34 104.41-0.61C104.66-0.87 104.86-1.22 105.00-1.66C105.14-2.09 105.22-2.62 105.22-3.25L105.22-7.87L104.26-7.87L104.26-3.23C104.26-2.76 104.21-2.36 104.11-2.04C104.02-1.72 103.88-1.46 103.72-1.27C103.55-1.08 103.35-0.94 103.13-0.86C102.90-0.77 102.66-0.73 102.40-0.73C102.14-0.73 101.90-0.77 101.68-0.86C101.45-0.94 101.26-1.08 101.09-1.27C100.93-1.46 100.80-1.72 100.70-2.04C100.61-2.36 100.56-2.76 100.56-3.23L100.56-7.87ZM107.34-7.87L107.34 0L108.29 0L108.29-4.12C108.29-4.53 108.27-4.95 108.25-5.36C108.22-5.77 108.19-6.18 108.16-6.58L108.20-6.58L109.06-4.96L111.91 0L112.94 0L112.94-7.87L112.00-7.87L112.00-3.80C112.00-3.39 112.01-2.97 112.04-2.54C112.07-2.11 112.09-1.70 112.12-1.30L112.07-1.30L111.22-2.93L108.37-7.87ZM114.65-3.94C114.65-3.30 114.74-2.72 114.91-2.21C115.09-1.71 115.33-1.28 115.64-0.93C115.96-0.58 116.33-0.32 116.76-0.13C117.19 0.05 117.67 0.14 118.19 0.14C118.72 0.14 119.19 0.06 119.61-0.11C120.03-0.29 120.37-0.50 120.62-0.77L120.62-4.08L118.04-4.08L118.04-3.25L119.71-3.25L119.71-1.20C119.55-1.06 119.35-0.94 119.09-0.86C118.84-0.77 118.58-0.73 118.30-0.73C117.87-0.73 117.50-0.81 117.17-0.96C116.85-1.11 116.58-1.33 116.36-1.61C116.14-1.89 115.97-2.23 115.85-2.62C115.74-3.02 115.68-3.46 115.68-3.96C115.68-4.45 115.74-4.89 115.87-5.28C115.99-5.67 116.16-6.01 116.39-6.28C116.61-6.56 116.88-6.77 117.20-6.92C117.52-7.07 117.88-7.14 118.28-7.14C118.68-7.14 119.01-7.07 119.27-6.93C119.53-6.79 119.76-6.62 119.96-6.41L120.53-7.04C120.30-7.28 120.00-7.51 119.63-7.71C119.27-7.91 118.82-8.02 118.27-8.02C117.74-8.02 117.26-7.92 116.82-7.73C116.38-7.55 116.00-7.28 115.67-6.92C115.35-6.57 115.10-6.14 114.92-5.64C114.74-5.14 114.65-4.57 114.65-3.94ZM122.51-7.87L122.51 0L126.95 0L126.95-0.85L123.50-0.85L123.50-7.87ZM128.34-7.87L128.34 0L133.00 0L133.00-0.85L129.34-0.85L129.34-3.71L132.32-3.71L132.32-4.56L129.34-4.56L129.34-7.03L132.88-7.03L132.88-7.87Z" transform="translate(-0.276, 8.016)"></path></g></g></g></g></g></g><defs v-gra="od"></defs></g></svg>